<svg xmlns="http://www.w3.org/2000/svg" viewBox="0 0 1024 1024" id="next">
  <path d="m532.3 978.6 44.5-44.5L683 827.9l129-129L922.9 588c18-18 36.3-35.7 54-54l.8-.8c11.5-11.5 11.5-30.9 0-42.4l-44.5-44.5L827 340.1l-129-129-110.9-110.9c-18-18-35.7-36.3-54-54l-.8-.8c-11.1-11.1-31.5-11.9-42.4 0-11 12-11.9 30.6 0 42.4l44.5 44.5 106.2 106.2 129 129 110.9 110.9c18 18 35.6 36.4 54 54l.8.8v-42.4l-44.5 44.5-106.2 106.2-129 129-110.9 110.9c-18 18-36.3 35.7-54 54l-.8.8c-11.1 11.1-11.9 31.5 0 42.4 11.9 11 30.5 11.9 42.4 0z"></path>
  <path d="M956.7 482H103.5c-11.5 0-23.1-.1-34.6 0h-1.5c-15.7 0-30.7 13.8-30 30 .7 16.3 13.2 30 30 30h853.2c11.5 0 23.1.1 34.6 0h1.5c15.7 0 30.7-13.8 30-30-.8-16.3-13.2-30-30-30z"></path>
</svg>
